<svg width="61" height="46" viewBox="0 0 61 46" fill="none" xmlns="http://www.w3.org/2000/svg">
<path d="M12.8293 0.673218H17.8293V5.67322H12.8293V18.1732C12.8293 19.4993 12.3026 20.7711 11.3649 21.7088C10.4272 22.6464 9.15543 23.1732 7.82935 23.1732C9.15543 23.1732 10.4272 23.7 11.3649 24.6377C12.3026 25.5754 12.8293 26.8471 12.8293 28.1732V40.6732H17.8293V45.6732H12.8293C10.1543 44.9982 7.82935 43.4232 7.82935 40.6732V30.6732C7.82935 29.3471 7.30256 28.0754 6.36488 27.1377C5.4272 26.2 4.15543 25.6732 2.82935 25.6732H0.329346V20.6732H2.82935C4.15543 20.6732 5.4272 20.1464 6.36488 19.2088C7.30256 18.2711 7.82935 16.9993 7.82935 15.6732V5.67322C7.82935 4.34714 8.35613 3.07537 9.29381 2.13768C10.2315 1.2 11.5033 0.673218 12.8293 0.673218ZM47.8293 0.673218C49.1554 0.673218 50.4272 1.2 51.3649 2.13768C52.3026 3.07537 52.8293 4.34714 52.8293 5.67322V15.6732C52.8293 16.9993 53.3561 18.2711 54.2938 19.2088C55.2315 20.1464 56.5033 20.6732 57.8293 20.6732H60.3293V25.6732H57.8293C56.5033 25.6732 55.2315 26.2 54.2938 27.1377C53.3561 28.0754 52.8293 29.3471 52.8293 30.6732V40.6732C52.8293 41.9993 52.3026 43.2711 51.3649 44.2088C50.4272 45.1464 49.1554 45.6732 47.8293 45.6732H42.8293V40.6732H47.8293V28.1732C47.8293 26.8471 48.3561 25.5754 49.2938 24.6377C50.2315 23.7 51.5033 23.1732 52.8293 23.1732C51.5033 23.1732 50.2315 22.6464 49.2938 21.7088C48.3561 20.7711 47.8293 19.4993 47.8293 18.1732V5.67322H42.8293V0.673218H47.8293ZM30.3293 30.6732C30.8238 30.6732 31.3071 30.8198 31.7183 31.0945C32.1294 31.3692 32.4498 31.7597 32.639 32.2165C32.8283 32.6733 32.8778 33.176 32.7813 33.6609C32.6848 34.1459 32.4467 34.5914 32.0971 34.941C31.7475 35.2906 31.302 35.5287 30.8171 35.6252C30.3321 35.7216 29.8295 35.6721 29.3726 35.4829C28.9158 35.2937 28.5254 34.9733 28.2507 34.5621C27.976 34.151 27.8293 33.6677 27.8293 33.1732C27.8293 32.5102 28.0927 31.8743 28.5616 31.4055C29.0304 30.9366 29.6663 30.6732 30.3293 30.6732ZM20.3293 30.6732C20.8238 30.6732 21.3071 30.8198 21.7183 31.0945C22.1294 31.3692 22.4498 31.7597 22.639 32.2165C22.8283 32.6733 22.8778 33.176 22.7813 33.6609C22.6848 34.1459 22.4467 34.5914 22.0971 34.941C21.7475 35.2906 21.302 35.5287 20.8171 35.6252C20.3321 35.7216 19.8295 35.6721 19.3726 35.4829C18.9158 35.2937 18.5254 34.9733 18.2507 34.5621C17.976 34.151 17.8293 33.6677 17.8293 33.1732C17.8293 32.5102 18.0927 31.8743 18.5616 31.4055C19.0304 30.9366 19.6663 30.6732 20.3293 30.6732ZM40.3293 30.6732C40.8238 30.6732 41.3071 30.8198 41.7183 31.0945C42.1294 31.3692 42.4498 31.7597 42.639 32.2165C42.8283 32.6733 42.8778 33.176 42.7813 33.6609C42.6848 34.1459 42.4467 34.5914 42.0971 34.941C41.7475 35.2906 41.302 35.5287 40.8171 35.6252C40.3321 35.7216 39.8295 35.6721 39.3726 35.4829C38.9158 35.2937 38.5254 34.9733 38.2507 34.5621C37.976 34.151 37.8293 33.6677 37.8293 33.1732C37.8293 32.5102 38.0927 31.8743 38.5616 31.4055C39.0304 30.9366 39.6663 30.6732 40.3293 30.6732Z" fill="#78864B"/>
</svg>
